<svg width="209" height="60" viewBox="0 0 209 60" fill="none" xmlns="http://www.w3.org/2000/svg">
<path fill-rule="evenodd" clip-rule="evenodd" d="M4.69313 1.45622H4.54334C4.2937 1.406 4.04406 1.406 3.84435 1.406C3.64464 1.10468 2.99557 0.30115 3.19528 0.25093C3.44492 0.150489 3.74449 0.0500488 4.04406 0.0500488C59.9638 0.0500488 115.933 0.0500488 171.853 0.0500488L165.163 54.8404H88.2232H60.7626C20.5703 54.8404 31.8541 54.8404 1.54765 54.8404L1.74736 53.6854C2.04693 53.5347 2.39643 53.4343 2.64607 53.2334V52.7814C2.79585 52.7312 2.99557 52.6307 3.29514 52.5805C3.54478 52.4299 3.79442 52.3796 4.09399 52.3294C4.34363 52.2792 4.59327 52.229 4.6432 51.9277C4.49342 51.5259 2.64607 51.5761 2.54621 51.0237C3.14535 50.9233 3.79442 50.6722 4.34363 50.4713C5.09256 50.2202 5.79155 49.5673 6.59041 49.5171C7.18955 49.4669 7.73876 49.4166 8.3379 49.3162C8.48768 49.3162 6.84005 49.1655 7.13962 48.9647C5.94134 48.814 4.9927 49.5673 3.99413 49.5673C3.39499 49.6175 3.84435 49.6677 3.24521 49.6677C2.696 49.6677 2.79585 49.4669 2.24664 49.4166C2.19671 49.4166 2.14679 49.3162 2.09686 49.2158C2.24664 49.1655 2.39643 49.0149 2.49628 49.0149C2.89571 48.9144 2.696 48.9647 3.14535 48.9144C3.89428 48.8642 5.44205 49.1655 5.74162 48.4625C5.94134 47.91 5.49198 47.5585 5.99127 47.5083C6.34076 47.4581 5.54191 46.9558 5.84148 46.9056C5.99127 46.8554 6.09112 46.8052 6.29084 46.7047C5.54191 46.303 5.79155 45.3488 5.04263 45.2986C4.59327 45.2986 4.34363 45.4492 3.94421 45.2986C3.59471 45.1479 2.74593 45.399 2.3465 45.399C1.997 45.399 1.69743 45.3488 1.39786 45.3488L1.44779 45.2484L1.39786 44.6457H1.54765C1.6475 44.2942 1.04836 43.8422 1.79729 43.6413C2.3465 43.3902 3.0455 42.9382 3.54478 42.436C3.29514 41.7329 2.74592 41.4316 1.997 41.3814C1.59757 41.3312 1.14822 41.2809 0.748792 41.1805C0.599007 41.1303 0.449222 41.0298 0.349365 40.9796C0.399294 40.8792 0.449222 40.7787 0.49915 40.7787C1.04836 40.7285 1.59757 40.6281 2.14679 40.6281C2.74593 40.6281 3.34507 40.6783 3.89428 40.7285C4.34363 40.7285 4.79299 40.7787 5.24234 40.7285C5.39213 40.5779 5.49198 40.3268 5.59184 40.0757C5.59184 40.0254 5.59184 39.9752 5.64177 39.925L3.74449 40.377C3.44492 40.377 3.14535 40.2765 2.89571 40.1761C2.84578 40.1761 2.84578 40.1259 2.89571 40.0254L0.848649 39.2721C0.898577 39.2721 1.997 39.0713 2.04693 39.0713C2.29657 39.0713 2.49628 39.021 2.74592 38.9206C2.94564 38.7197 3.24521 38.6695 3.39499 38.4184C3.34507 38.1171 3.09542 38.0166 2.84578 38.0166C2.39643 37.9664 2.04693 37.8157 1.74736 37.5144H4.04406C4.24378 37.3638 4.54334 37.2633 4.79299 37.2131C5.14248 37.1629 5.44205 37.1127 5.79155 37.0624C5.94134 37.0122 6.04119 36.962 6.24091 36.8616C5.49198 36.4598 5.49198 36.51 4.74306 36.4598C4.2937 36.4598 3.79442 36.4096 3.39499 36.2589C3.0455 36.1083 2.696 36.058 2.29657 36.058C0.998434 36.058 2.09686 35.8069 0.349365 34.8527C0.449222 34.4008 0.49915 33.9488 0.549079 33.547C0.848649 33.3964 1.19815 33.2959 1.44779 33.095V32.6431C1.59757 32.5928 1.79729 32.4924 2.09686 32.4422C2.3465 32.2915 2.59614 32.2413 2.89571 32.1911C3.14535 32.1408 3.39499 32.0906 3.44492 31.7893C3.29514 31.3875 2.696 31.4378 2.59614 30.8853C3.19528 30.7849 3.74449 30.7347 4.2937 30.5338C5.04263 30.2827 5.84148 30.1823 6.64034 30.132C7.23948 30.0818 7.78869 30.0316 8.38783 29.9312C8.53761 29.9312 6.88998 29.7805 7.18955 29.5796C5.99127 29.4289 4.9927 29.4289 3.99413 29.4289C3.39499 29.4792 2.79585 29.5294 2.24664 29.5294C1.69743 29.5294 1.14822 29.4289 0.599007 29.3787C0.549079 29.3787 0.49915 29.2783 0.449222 29.1778C0.599007 29.1276 0.748792 28.977 0.848649 28.977C1.24808 28.8765 1.69743 28.8263 2.09686 28.7761C2.84578 28.7259 3.39499 28.4245 3.64464 27.6712C3.84435 27.1188 4.2937 26.9179 4.84292 26.8677C5.19241 26.8175 5.49198 26.7673 5.84148 26.717C5.99127 26.6668 6.09112 26.6166 6.29084 26.5162C5.54191 26.1144 5.54191 26.1646 4.79299 26.1144C4.34363 26.1144 3.84435 26.0642 3.44492 25.9135C3.09542 25.7629 2.74593 25.7126 2.3465 25.7126C1.997 25.7126 1.69743 25.6624 1.39786 25.6624C1.49772 24.8087 1.59757 24.0554 1.69743 23.1012C2.79585 22.9003 4.09399 22.6994 4.24377 21.1426C4.34363 21.0924 4.39356 21.0422 4.49342 21.0422C5.14248 20.9417 5.59184 20.5902 5.74162 19.9875C5.74162 19.9373 5.79155 19.8369 5.79155 19.7866C5.79155 19.7364 5.74162 19.636 5.74162 19.5858C5.59184 18.9329 5.14248 18.5814 4.49342 18.5311C4.39356 18.5311 4.34363 18.4809 4.24377 18.4307C4.09399 16.8739 2.79585 16.673 1.69743 16.4721C1.59757 15.5681 1.49772 14.7646 1.39786 13.9109C1.69743 13.9109 2.04693 13.8606 2.3465 13.8606C2.74593 13.8606 3.09542 13.8104 3.44492 13.6598C3.84435 13.5091 4.34363 13.5091 4.79299 13.4589C5.54191 13.4087 5.54191 13.4589 6.29084 13.0571C6.09112 12.9567 5.99127 12.9065 5.84148 12.8562C5.49198 12.806 5.19241 12.7558 4.84292 12.7056C4.34363 12.6051 3.84435 12.4043 3.64464 11.902C3.39499 11.1487 2.84578 10.8976 2.09686 10.7972C1.69743 10.747 1.24808 10.6968 0.848649 10.5963C0.698864 10.5461 0.549079 10.4457 0.449222 10.3954C0.49915 10.295 0.549079 10.1946 0.599007 10.1946C1.14822 10.1443 1.69743 10.0439 2.24664 10.0439C2.84578 10.0439 3.44492 10.0941 3.99413 10.1443C4.9927 10.1946 5.99127 10.1946 7.18955 9.99368C6.88998 9.7928 8.48768 9.64213 8.38783 9.64213C7.78869 9.54169 7.23948 9.49147 6.64034 9.44125C5.84148 9.39103 5.04263 9.29059 4.2937 9.03949C3.74449 8.83861 3.14535 8.78839 2.59614 8.68795C2.696 8.18574 3.29514 8.18574 3.44492 7.78398C3.39499 7.48266 3.14535 7.38222 2.89571 7.38222C2.39643 7.28178 1.94707 7.13112 1.6475 6.62891C1.49772 6.37781 1.04836 6.27737 0.599007 6.02627C0.549079 5.67473 0.449222 5.22274 0.399294 4.72054C0.79872 4.51966 1.14822 4.56988 1.54765 4.56988C1.89714 4.56988 2.19671 4.6201 2.54621 4.6201C3.29514 4.67032 4.04406 4.67032 4.79299 4.72054V4.46944H4.89284C5.64177 4.51966 6.34076 4.51966 7.08969 4.51966C6.64033 4.46944 6.19098 4.41922 5.79155 4.46944C6.74019 4.26856 7.68883 4.31878 8.63747 4.41922C8.98697 4.369 9.38639 4.31878 9.78582 4.26856C9.33646 3.91701 11.8329 3.71613 11.6332 3.66591C10.7345 3.51525 9.83575 3.41481 8.93704 3.31437C7.68883 3.21393 6.49055 3.06327 5.3422 2.61129C5.14249 2.56107 4.94277 2.46062 4.74306 2.4104V1.45622H4.69313Z" fill="#EFB10E"/>
<path fill-rule="evenodd" clip-rule="evenodd" d="M3.09503 7.38223C2.99519 7.33201 2.89535 7.28179 2.74559 7.28179C2.2464 7.18135 1.79713 7.03068 1.49761 6.52848C1.34786 6.27738 0.898583 6.17694 0.449311 5.92584C0.399391 5.57429 0.299553 5.12231 0.249634 4.62011C0.648987 4.41923 0.998421 4.46945 1.39777 4.46945C1.74721 4.46945 2.04672 4.51967 2.39616 4.51967L3.09503 4.56989V7.38223Z" fill="#EFB10E"/>
<path fill-rule="evenodd" clip-rule="evenodd" d="M2.04706 13.7604C2.09699 13.7604 2.14692 13.7604 2.19685 13.7604C2.59627 13.7604 2.94577 13.7102 3.29527 13.5595C3.6947 13.4089 4.19398 13.4089 4.64333 13.3586C5.39226 13.3084 5.39226 13.3586 6.14119 12.9569C5.94147 12.8564 5.84161 12.8062 5.69183 12.756C5.34233 12.7058 5.04276 12.6556 4.69326 12.6053C4.19398 12.5049 3.6947 12.304 3.49498 11.8018C3.24534 11.0485 2.69613 10.7974 1.94721 10.697C1.54778 10.6468 1.09842 10.5463 0.698997 10.4961C0.549212 10.4459 0.399427 10.3454 0.29957 10.2952C0.349498 10.1948 0.399427 10.0943 0.449355 10.0943C0.998567 10.0441 1.54778 9.94367 2.09699 9.94367C2.69613 9.94367 3.29527 9.99389 3.84448 10.0441C4.84305 10.0943 5.84162 10.0943 7.0399 9.89345C6.74033 9.69257 8.33803 9.5419 8.23818 9.5419C7.63904 9.44146 7.08982 9.39124 6.49068 9.34102C5.69183 9.2908 4.89298 9.19036 4.14405 8.93926C3.59484 8.73838 2.9957 8.68816 2.44649 8.58772C2.54635 8.08551 3.14549 8.08551 3.29527 7.68375C3.24534 7.38243 2.9957 7.28199 2.74606 7.28199C2.2967 7.23177 1.9472 7.08111 1.64763 6.77979H12.8316V15.3172H2.84592V16.5728C2.74606 16.5225 2.6462 16.4723 2.49642 16.4723C1.99713 16.3719 1.54778 16.2212 1.24821 15.719C1.09842 15.4679 0.649068 15.3675 0.199713 15.1164C0.149785 14.7648 0.0499283 14.3128 0 13.8609C0.399427 13.66 0.748925 13.7102 1.14835 13.7102C1.44792 13.7604 1.74749 13.7604 2.04706 13.7604Z" fill="#EFB10E"/>
<path fill-rule="evenodd" clip-rule="evenodd" d="M171.853 0H165.662L142.246 48.7639L154.578 54.7904H165.163L171.853 0Z" fill="#D49A08"/>
<path fill-rule="evenodd" clip-rule="evenodd" d="M21.0698 54.7901L136.155 54.7399C136.205 54.5892 136.404 54.539 136.754 54.4386C136.904 54.3883 137.003 54.3381 137.153 54.3381C137.902 54.3381 138.252 53.7857 138.851 53.4844C138.901 53.4844 138.901 53.3839 138.951 53.2333C138.801 53.1831 138.651 53.0826 138.501 53.0826C133.059 52.932 136.554 53.0324 134.906 52.9822C135.006 52.48 135.306 52.4298 135.506 52.3293C135.506 51.9276 135.456 51.8271 135.206 51.8271C134.807 51.8773 134.457 51.8773 134.058 51.9276C133.908 51.9276 133.758 51.8773 133.608 51.8773C133.608 51.576 135.206 51.576 135.356 51.576C135.705 51.576 136.105 51.576 136.454 51.576C137.003 51.576 136.404 51.4756 136.904 51.2747C137.153 51.1742 137.403 51.0738 137.702 51.124C138.052 51.1742 138.302 51.0738 138.551 50.7223C138.401 50.5716 138.252 50.4712 138.152 50.3205C138.102 50.1698 138.202 49.969 138.202 49.7681C139.2 49.6174 139.35 49.517 140.848 49.4668C140.948 49.4668 141.048 49.4165 141.147 49.3663C141.147 49.2157 141.147 49.065 141.147 48.8641C140.498 48.5126 141.297 48.4121 139.45 48.3619C138.401 48.3117 139.1 48.3117 138.002 48.2615C137.852 48.0104 137.702 47.7593 137.553 47.5082C138.152 47.2068 138.851 47.3575 139.55 46.9055C139.2 46.8553 139.001 46.8051 138.851 46.8051C138.651 46.8051 138.451 46.8051 138.152 46.7549C138.252 46.6042 138.252 46.4535 138.351 46.4535C138.751 46.2527 139.25 46.102 139.6 45.7504C139.749 45.5998 140.049 45.65 140.299 45.5998C140.548 45.5496 140.798 45.4993 140.898 45.1478C140.049 44.2941 138.801 44.5452 137.652 44.0932C138.102 43.7416 138.451 43.7416 138.851 43.7416C139.001 43.7416 139.25 43.7919 139.35 43.6914C139.849 43.139 140.498 43.3399 141.098 43.2897C142.296 43.1892 143.494 43.139 144.493 43.0888C145.092 42.687 145.541 42.4359 146.04 42.0844C146.04 41.9839 146.09 41.783 146.14 41.5822C146.04 41.5319 145.991 41.4315 145.941 41.4315C145.791 41.3813 145.691 41.3813 145.541 41.3813C145.092 41.3813 144.942 41.1302 144.892 40.7284C144.193 40.7284 143.544 40.4773 142.895 40.176C142.545 40.0253 142.396 39.724 142.296 39.3725C142.246 39.2218 142.246 39.1214 142.296 38.9707H20.97V39.9249H34.9V41.4817L27.8102 42.235L34.9998 43.2394V53.8359H21.0698V54.7901ZM141.447 45.2985C141.347 45.198 141.347 45.0976 141.297 44.9971C141.297 44.9469 141.397 44.8465 141.397 44.8465C141.497 44.8967 141.647 44.9469 141.697 45.0474C141.747 45.0976 141.747 45.198 141.846 45.4491C141.597 45.3487 141.497 45.3487 141.447 45.2985ZM141.697 44.1434C141.647 44.0932 141.597 43.9927 141.547 43.9425C141.647 43.9425 141.747 43.8923 141.846 43.8923C141.946 43.8923 141.996 43.9927 142.246 44.1434C141.896 44.1434 141.797 44.1936 141.697 44.1434Z" fill="#BC281E"/>
<path fill-rule="evenodd" clip-rule="evenodd" d="M40.3921 50.0697V47.86H42.1895C43.7873 47.86 44.7858 46.705 44.7858 45.2988C44.7858 43.8926 43.8372 42.6874 42.1895 42.6874H39.1938V50.0195H40.3921V50.0697ZM87.5744 45.801L89.5715 42.7376H90.9695V42.9385L88.6229 46.3534L91.0195 49.9191V50.12H89.6215L87.5245 46.8556H86.1764V50.12H84.9781V42.7376H86.1764V45.801H87.5744ZM40.3921 46.8054V43.7922H42.1895C43.0383 43.7922 43.5875 44.4451 43.5875 45.2988C43.5875 46.1526 42.9884 46.8054 42.1895 46.8054H40.3921ZM50.4277 42.7376H45.9841V50.0697H50.4776V48.9649H47.1824V46.8054H50.228V45.7508H47.1824V43.7922H50.3778V42.7376H50.4277ZM55.4206 46.5041L52.4748 42.6874H51.9755V50.0195H53.1738V45.4495L55.2708 48.1614H55.4206L57.5175 45.4495V50.0195H58.7158V42.6874H58.2665L55.4206 46.5041ZM67.6031 46.4037C67.6031 43.9931 65.9055 42.5869 63.9084 42.5869C61.9112 42.5869 60.2137 43.9931 60.2137 46.4037C60.2137 48.8142 61.9112 50.2204 63.9084 50.2204C66.1052 50.1702 67.6031 48.6134 67.6031 46.4037ZM61.412 46.4037C61.412 44.6962 62.5603 43.742 63.9084 43.742C65.2564 43.742 66.4048 44.6962 66.4048 46.4037C66.4048 48.1112 65.2564 49.0653 63.9084 49.0653C62.5104 49.0151 61.412 48.1112 61.412 46.4037ZM74.7428 50.0697V42.7376H73.5445V45.7006H70.1993V42.7376H69.0011V50.0697H70.1993V46.8054H73.5445V50.0697H74.7428ZM77.9882 43.7922V50.0697H79.1864V43.7922H81.2834V42.7376H75.8912V43.7922H77.9882ZM97.3603 44.7966C97.3603 43.3904 96.4117 42.7376 95.0637 42.7376H92.1179V50.0697H95.3632C96.7612 50.0697 97.6599 49.216 97.6599 47.9103C97.6599 47.1067 97.2605 46.4539 96.4616 46.2028C97.1107 45.9015 97.3603 45.3993 97.3603 44.7966ZM95.0137 43.7922C95.7127 43.7922 96.212 44.0935 96.212 44.8468C96.212 45.5499 95.7127 45.8512 95.0137 45.8512H93.3661V43.8424H95.0137V43.7922ZM95.1635 46.8054C95.513 46.8054 95.8126 46.8054 96.1121 47.0565C96.3618 47.2574 96.5116 47.5587 96.5116 47.9103C96.4616 48.6134 96.0123 49.0151 95.3133 49.0151H93.3162V46.8054H95.1635ZM103.402 48.5129L104.101 50.0195H105.349V49.8689L102.004 42.6371H101.454L98.0594 49.8689V50.0195H99.3076L100.007 48.5129H103.402ZM101.704 44.5957L102.952 47.5085H100.406L101.704 44.5957ZM107.496 50.0697V47.86H109.293C110.891 47.86 111.89 46.705 111.89 45.2988C111.89 43.8926 110.941 42.6874 109.293 42.6874H106.298V50.0195H107.496V50.0697ZM107.496 46.8054V43.7922H109.343C110.192 43.7922 110.741 44.4451 110.741 45.2988C110.741 46.1526 110.142 46.8054 109.343 46.8054H107.496ZM114.486 43.7922V50.0697H115.684V43.7922H117.781V42.7376H112.389V43.7922H114.486ZM123.772 45.0477L123.673 47.3578V50.0195H124.871V42.6874H124.422L119.978 47.6089L120.078 45.349V42.6874H118.879V50.0195H119.279L123.772 45.0477ZM127.916 50.0697V47.86H129.714C131.312 47.86 132.31 46.705 132.31 45.2988C132.31 43.8926 131.362 42.6874 129.714 42.6874H126.718V50.0195H127.916V50.0697ZM127.867 46.8054V43.7922H129.664C130.513 43.7922 131.062 44.4451 131.062 45.2988C131.062 46.1526 130.463 46.8054 129.664 46.8054H127.867Z" fill="white"/>
<path fill-rule="evenodd" clip-rule="evenodd" d="M41.8399 23.1514C41.8399 25.361 41.3406 26.9681 40.3421 27.9725C39.3435 28.9769 37.7458 29.4791 35.549 29.4791H31.8043V31.6888H26.2124V29.4791H22.4677C20.2709 29.4791 18.6732 28.9769 17.6746 27.9725C16.676 26.9681 16.1768 25.361 16.1768 23.1514V16.8236C16.1768 14.6139 16.676 13.0068 17.6746 12.0024C18.6732 10.998 20.2709 10.4958 22.4677 10.4958H26.2124V8.28613H31.8543V10.4958H35.5989C37.7957 10.4958 39.3934 10.998 40.392 12.0024C41.3906 13.0068 41.8899 14.6139 41.8899 16.8236V23.1514H41.8399ZM36.198 16.8236C36.198 15.5681 35.549 14.9152 34.3007 14.9152H31.5048V25.0095H34.3007C35.549 25.0095 36.198 24.3566 36.198 23.1011V16.8236ZM21.8187 23.1514C21.8187 24.4069 22.4677 25.0597 23.7159 25.0597H26.5119V14.9152H23.7159C22.4677 14.9152 21.8187 15.5681 21.8187 16.8236V23.1514ZM58.7656 14.9152C58.7656 13.6597 58.1166 13.0068 56.8683 13.0068H51.526C50.2778 13.0068 49.6287 13.6597 49.6287 14.9152V25.0095C49.6287 26.265 50.2778 26.9179 51.526 26.9179H56.8683C58.1166 26.9179 58.7656 26.265 58.7656 25.0095V14.9152ZM64.4075 25.0095C64.4075 27.2192 63.9082 28.8263 62.9097 29.8307C61.9111 30.8351 60.3134 31.3373 58.1166 31.3373H50.2778C48.081 31.3373 46.4833 30.8351 45.4847 29.8307C44.4861 28.8263 43.9868 27.2192 43.9868 25.0095V14.9152C43.9868 12.7055 44.4861 11.0985 45.4847 10.0941C46.4833 9.08966 48.081 8.58746 50.2778 8.58746H58.1166C60.3134 8.58746 61.9111 9.08966 62.9097 10.0941C63.9082 11.0985 64.4075 12.7055 64.4075 14.9152V25.0095ZM67.553 8.939H80.7341C82.9309 8.939 84.5286 9.4412 85.5272 10.4456C86.5258 11.45 87.0251 13.0571 87.0251 15.2668V18.4306C87.0251 20.6403 86.5258 22.2474 85.5272 23.2518C84.5286 24.2562 82.9309 24.7584 80.7341 24.7584H73.1949V31.0862H67.553V8.939ZM81.3332 15.2668C81.3332 14.0113 80.6842 13.3584 79.436 13.3584H73.145V20.2888H79.436C80.6842 20.2888 81.3332 19.6359 81.3332 18.3804V15.2668ZM108.594 18.732L104.2 26.6166H99.8067L95.413 18.732V31.0359H89.7711V8.939H95.7126L102.004 20.5901L108.295 8.939H114.236V30.9857H108.594V18.732ZM121.925 31.0359H115.834L124.122 8.98922H130.363L138.651 31.0359H132.56L131.162 27.1188H123.323L121.925 31.0359ZM124.771 23.0007H129.764L127.267 15.5681L124.771 23.0007ZM148.736 31.0359V13.3584H155.327V8.939H136.504V13.3584H143.095V31.0359H148.736Z" fill="#2C3032"/>
<path fill-rule="evenodd" clip-rule="evenodd" d="M1.39783 24.106L1.24805 25.6126C1.54762 25.6126 1.89712 25.6628 2.19669 25.6628C2.59611 25.6628 2.94561 25.713 3.29511 25.8637C3.69454 26.0143 4.19382 26.0143 4.64317 26.0646C5.3921 26.1148 5.3921 26.0645 6.14102 26.4663C5.94131 26.5668 5.84145 26.617 5.69167 26.6672C5.34217 26.7174 5.0426 26.7676 4.6931 26.8179C4.19382 26.9183 3.69454 27.1192 3.49482 27.6214C3.24518 28.3747 2.69597 28.6258 1.94704 28.7262C1.89712 28.7262 1.84719 28.7262 1.74733 28.7262H10.2851V24.106H1.39783Z" fill="#EFB10E"/>
<path fill-rule="evenodd" clip-rule="evenodd" d="M21.0697 40.1763V53.8362H17.8743C17.375 50.371 14.0798 48.2115 10.7845 48.9648L4.74318 50.371C4.44361 50.4714 4.09411 50.5217 3.79454 50.5217C1.94719 50.5217 0.399414 49.0151 0.399414 47.1067C0.399414 45.2485 1.89726 43.6917 3.79454 43.6917C4.09411 43.6917 4.39368 43.7419 4.69325 43.7921L10.9343 45.1983C13.6803 45.8512 17.425 44.0432 17.9243 40.2265H21.0697V40.1763ZM5.09268 47.0565C5.09268 46.3032 4.49354 45.7507 3.79454 45.7507C3.04562 45.7507 2.4964 46.3534 2.4964 47.0565C2.4964 47.8098 3.09554 48.3622 3.79454 48.3622C4.49354 48.4124 5.09268 47.8098 5.09268 47.0565Z" fill="#2C3032"/>
<path fill-rule="evenodd" clip-rule="evenodd" d="M21.0697 40.1763V53.8362H25.213V40.1763H21.0697Z" fill="white"/>
<path fill-rule="evenodd" clip-rule="evenodd" d="M1.39783 24.106L1.24805 25.6126C1.54762 25.6126 1.89712 25.6628 2.19669 25.6628C2.59611 25.6628 2.94561 25.713 3.29511 25.8637C3.69454 26.0143 4.19382 26.0143 4.64317 26.0646C5.3921 26.1148 5.3921 26.0645 6.14102 26.4663C5.94131 26.5668 5.84145 26.617 5.69167 26.6672C5.34217 26.7174 5.0426 26.7676 4.6931 26.8179C4.19382 26.9183 3.69454 27.1192 3.49482 27.6214C3.24518 28.3747 2.69597 28.6258 1.94704 28.7262C1.89712 28.7262 1.84719 28.7262 1.74733 28.7262H10.2851V24.106H1.39783Z" fill="#EFB10E"/>
<path fill-rule="evenodd" clip-rule="evenodd" d="M187.93 38.2179L182.438 35.506C181.34 35.0038 180.042 35.4558 179.492 36.5104L169.307 57.4523C168.209 59.7122 165.512 60.6162 163.316 59.5615L157.973 56.9501C155.726 55.8452 154.828 53.1333 155.876 50.8734L180.191 0.653076L182.238 1.65748L157.923 51.8778C157.374 52.9827 157.873 54.2884 158.922 54.8408L164.264 57.4523C165.363 58.0047 166.661 57.5025 167.21 56.4479L177.345 35.506C178.444 33.2461 181.14 32.3421 183.337 33.3967L188.829 36.1086L187.93 38.2179ZM205.505 50.0699L209 42.7879L191.076 35.054L188.38 40.6787L205.505 50.0699Z" fill="#2C3032"/>
<path fill-rule="evenodd" clip-rule="evenodd" d="M171.154 19.335L180.191 0.653076L182.238 1.65748L173.201 20.3395L171.154 19.335Z" fill="#2C3032"/>
<path d="M171.862 0.0173231L149.134 46.9766L165.16 54.8239L187.888 7.8647L171.862 0.0173231Z" fill="#BC281E"/>
</svg>
